<mxfile host="app.diagrams.net" modified="2021-04-02T09:48:19.283Z" agent="5.0 (Windows NT 10.0; Win64; x64) AppleWebKit/537.36 (KHTML, like Gecko) Chrome/89.0.4389.114 Safari/537.36" etag="GEyFslRh-S2SfmPXeoIf" version="14.5.4" type="github">
  <diagram id="C5RBs43oDa-KdzZeNtuy" name="Page-1">
    <mxGraphModel dx="1249" dy="3007" grid="1" gridSize="10" guides="1" tooltips="1" connect="1" arrows="1" fold="1" page="1" pageScale="1" pageWidth="827" pageHeight="1169" background="none" math="0" shadow="0">
      <root>
        <mxCell id="WIyWlLk6GJQsqaUBKTNV-0" />
        <mxCell id="WIyWlLk6GJQsqaUBKTNV-1" parent="WIyWlLk6GJQsqaUBKTNV-0" />
        <mxCell id="3OzVoxAu-Ab8x1Q6x_4J-10" value="" style="edgeStyle=orthogonalEdgeStyle;rounded=0;orthogonalLoop=1;jettySize=auto;html=1;" edge="1" parent="WIyWlLk6GJQsqaUBKTNV-1" source="3OzVoxAu-Ab8x1Q6x_4J-8" target="3OzVoxAu-Ab8x1Q6x_4J-9">
          <mxGeometry relative="1" as="geometry" />
        </mxCell>
        <mxCell id="3OzVoxAu-Ab8x1Q6x_4J-8" value="audio callback" style="rounded=1;whiteSpace=wrap;html=1;" vertex="1" parent="WIyWlLk6GJQsqaUBKTNV-1">
          <mxGeometry x="300" y="-2280" width="90" height="60" as="geometry" />
        </mxCell>
        <mxCell id="3OzVoxAu-Ab8x1Q6x_4J-12" value="" style="edgeStyle=orthogonalEdgeStyle;rounded=0;orthogonalLoop=1;jettySize=auto;html=1;" edge="1" parent="WIyWlLk6GJQsqaUBKTNV-1" source="3OzVoxAu-Ab8x1Q6x_4J-9" target="3OzVoxAu-Ab8x1Q6x_4J-11">
          <mxGeometry relative="1" as="geometry" />
        </mxCell>
        <mxCell id="3OzVoxAu-Ab8x1Q6x_4J-16" value="YES" style="edgeStyle=orthogonalEdgeStyle;rounded=0;orthogonalLoop=1;jettySize=auto;html=1;" edge="1" parent="WIyWlLk6GJQsqaUBKTNV-1" source="3OzVoxAu-Ab8x1Q6x_4J-9" target="3OzVoxAu-Ab8x1Q6x_4J-15">
          <mxGeometry relative="1" as="geometry" />
        </mxCell>
        <mxCell id="3OzVoxAu-Ab8x1Q6x_4J-9" value="buffer empty" style="rhombus;whiteSpace=wrap;html=1;rounded=1;" vertex="1" parent="WIyWlLk6GJQsqaUBKTNV-1">
          <mxGeometry x="305" y="-2150" width="80" height="80" as="geometry" />
        </mxCell>
        <mxCell id="3OzVoxAu-Ab8x1Q6x_4J-13" value="No" style="edgeStyle=orthogonalEdgeStyle;rounded=0;orthogonalLoop=1;jettySize=auto;html=1;" edge="1" parent="WIyWlLk6GJQsqaUBKTNV-1" source="3OzVoxAu-Ab8x1Q6x_4J-11" target="3OzVoxAu-Ab8x1Q6x_4J-9">
          <mxGeometry relative="1" as="geometry" />
        </mxCell>
        <mxCell id="3OzVoxAu-Ab8x1Q6x_4J-14" value="NO" style="edgeStyle=orthogonalEdgeStyle;rounded=0;orthogonalLoop=1;jettySize=auto;html=1;" edge="1" parent="WIyWlLk6GJQsqaUBKTNV-1" source="3OzVoxAu-Ab8x1Q6x_4J-11" target="3OzVoxAu-Ab8x1Q6x_4J-9">
          <mxGeometry relative="1" as="geometry" />
        </mxCell>
        <mxCell id="3OzVoxAu-Ab8x1Q6x_4J-11" value="read buffer" style="whiteSpace=wrap;html=1;rounded=1;" vertex="1" parent="WIyWlLk6GJQsqaUBKTNV-1">
          <mxGeometry x="445" y="-2140" width="120" height="60" as="geometry" />
        </mxCell>
        <mxCell id="3OzVoxAu-Ab8x1Q6x_4J-24" value="" style="edgeStyle=orthogonalEdgeStyle;rounded=0;orthogonalLoop=1;jettySize=auto;html=1;" edge="1" parent="WIyWlLk6GJQsqaUBKTNV-1" source="3OzVoxAu-Ab8x1Q6x_4J-15" target="3OzVoxAu-Ab8x1Q6x_4J-23">
          <mxGeometry relative="1" as="geometry" />
        </mxCell>
        <mxCell id="3OzVoxAu-Ab8x1Q6x_4J-15" value="read packet from queue" style="whiteSpace=wrap;html=1;rounded=1;" vertex="1" parent="WIyWlLk6GJQsqaUBKTNV-1">
          <mxGeometry x="285" y="-1980" width="120" height="60" as="geometry" />
        </mxCell>
        <mxCell id="3OzVoxAu-Ab8x1Q6x_4J-20" value="" style="edgeStyle=orthogonalEdgeStyle;rounded=0;orthogonalLoop=1;jettySize=auto;html=1;" edge="1" parent="WIyWlLk6GJQsqaUBKTNV-1" source="3OzVoxAu-Ab8x1Q6x_4J-17" target="3OzVoxAu-Ab8x1Q6x_4J-19">
          <mxGeometry relative="1" as="geometry" />
        </mxCell>
        <mxCell id="3OzVoxAu-Ab8x1Q6x_4J-17" value="decode frame" style="whiteSpace=wrap;html=1;rounded=1;" vertex="1" parent="WIyWlLk6GJQsqaUBKTNV-1">
          <mxGeometry x="285" y="-1740" width="120" height="60" as="geometry" />
        </mxCell>
        <mxCell id="3OzVoxAu-Ab8x1Q6x_4J-27" style="edgeStyle=orthogonalEdgeStyle;rounded=0;orthogonalLoop=1;jettySize=auto;html=1;entryX=0;entryY=0.5;entryDx=0;entryDy=0;" edge="1" parent="WIyWlLk6GJQsqaUBKTNV-1" source="3OzVoxAu-Ab8x1Q6x_4J-19" target="3OzVoxAu-Ab8x1Q6x_4J-8">
          <mxGeometry relative="1" as="geometry">
            <Array as="points">
              <mxPoint x="240" y="-1580" />
              <mxPoint x="240" y="-2250" />
            </Array>
          </mxGeometry>
        </mxCell>
        <mxCell id="3OzVoxAu-Ab8x1Q6x_4J-19" value="fill buffer with frame data" style="whiteSpace=wrap;html=1;rounded=1;" vertex="1" parent="WIyWlLk6GJQsqaUBKTNV-1">
          <mxGeometry x="285" y="-1610" width="120" height="60" as="geometry" />
        </mxCell>
        <mxCell id="3OzVoxAu-Ab8x1Q6x_4J-26" value="" style="edgeStyle=orthogonalEdgeStyle;rounded=0;orthogonalLoop=1;jettySize=auto;html=1;" edge="1" parent="WIyWlLk6GJQsqaUBKTNV-1" source="3OzVoxAu-Ab8x1Q6x_4J-23" target="3OzVoxAu-Ab8x1Q6x_4J-17">
          <mxGeometry relative="1" as="geometry" />
        </mxCell>
        <mxCell id="3OzVoxAu-Ab8x1Q6x_4J-23" value="read packet pts update to audio_clock" style="whiteSpace=wrap;html=1;rounded=1;" vertex="1" parent="WIyWlLk6GJQsqaUBKTNV-1">
          <mxGeometry x="285" y="-1870" width="120" height="60" as="geometry" />
        </mxCell>
      </root>
    </mxGraphModel>
  </diagram>
</mxfile>
